<mxfile host="Electron" agent="Mozilla/5.0 (Macintosh; Intel Mac OS X 10_15_7) AppleWebKit/537.36 (KHTML, like Gecko) draw.io/24.7.5 Chrome/126.0.6478.183 Electron/31.3.0 Safari/537.36" version="24.7.5">
  <diagram name="페이지-1" id="2v7mnxKvc3AHQOF2nFOO">
    <mxGraphModel dx="1114" dy="894" grid="1" gridSize="10" guides="1" tooltips="1" connect="1" arrows="1" fold="1" page="1" pageScale="1" pageWidth="827" pageHeight="1169" math="0" shadow="0">
      <root>
        <mxCell id="0" />
        <mxCell id="1" parent="0" />
        <mxCell id="TN-8ZuCSGwRoG43ZWY-6-11" style="edgeStyle=orthogonalEdgeStyle;rounded=0;orthogonalLoop=1;jettySize=auto;html=1;endArrow=block;endFill=1;" edge="1" parent="1" source="TN-8ZuCSGwRoG43ZWY-6-1" target="TN-8ZuCSGwRoG43ZWY-6-7">
          <mxGeometry relative="1" as="geometry" />
        </mxCell>
        <mxCell id="TN-8ZuCSGwRoG43ZWY-6-12" style="edgeStyle=orthogonalEdgeStyle;rounded=0;orthogonalLoop=1;jettySize=auto;html=1;entryX=0.5;entryY=0;entryDx=0;entryDy=0;curved=1;endArrow=block;endFill=1;" edge="1" parent="1" source="TN-8ZuCSGwRoG43ZWY-6-1" target="TN-8ZuCSGwRoG43ZWY-6-8">
          <mxGeometry relative="1" as="geometry">
            <Array as="points">
              <mxPoint x="115" y="120" />
              <mxPoint x="235" y="120" />
            </Array>
          </mxGeometry>
        </mxCell>
        <mxCell id="TN-8ZuCSGwRoG43ZWY-6-13" style="edgeStyle=orthogonalEdgeStyle;rounded=0;orthogonalLoop=1;jettySize=auto;html=1;curved=1;endArrow=block;endFill=1;" edge="1" parent="1" source="TN-8ZuCSGwRoG43ZWY-6-1" target="TN-8ZuCSGwRoG43ZWY-6-9">
          <mxGeometry relative="1" as="geometry">
            <Array as="points">
              <mxPoint x="115" y="120" />
              <mxPoint x="355" y="120" />
            </Array>
          </mxGeometry>
        </mxCell>
        <mxCell id="TN-8ZuCSGwRoG43ZWY-6-14" style="edgeStyle=orthogonalEdgeStyle;rounded=0;orthogonalLoop=1;jettySize=auto;html=1;entryX=0.5;entryY=0;entryDx=0;entryDy=0;curved=1;endArrow=block;endFill=1;" edge="1" parent="1" source="TN-8ZuCSGwRoG43ZWY-6-1" target="TN-8ZuCSGwRoG43ZWY-6-10">
          <mxGeometry relative="1" as="geometry">
            <Array as="points">
              <mxPoint x="115" y="120" />
              <mxPoint x="475" y="120" />
            </Array>
          </mxGeometry>
        </mxCell>
        <mxCell id="TN-8ZuCSGwRoG43ZWY-6-1" value="프론트엔드 서버" style="rounded=0;whiteSpace=wrap;html=1;" vertex="1" parent="1">
          <mxGeometry x="60" y="50" width="110" height="40" as="geometry" />
        </mxCell>
        <mxCell id="TN-8ZuCSGwRoG43ZWY-6-15" style="edgeStyle=orthogonalEdgeStyle;rounded=0;orthogonalLoop=1;jettySize=auto;html=1;entryX=0.5;entryY=0;entryDx=0;entryDy=0;curved=1;endArrow=block;endFill=1;" edge="1" parent="1" source="TN-8ZuCSGwRoG43ZWY-6-2" target="TN-8ZuCSGwRoG43ZWY-6-7">
          <mxGeometry relative="1" as="geometry">
            <Array as="points">
              <mxPoint x="235" y="120" />
              <mxPoint x="115" y="120" />
            </Array>
          </mxGeometry>
        </mxCell>
        <mxCell id="TN-8ZuCSGwRoG43ZWY-6-16" style="edgeStyle=orthogonalEdgeStyle;rounded=0;orthogonalLoop=1;jettySize=auto;html=1;entryX=0.5;entryY=0;entryDx=0;entryDy=0;endArrow=block;endFill=1;" edge="1" parent="1" source="TN-8ZuCSGwRoG43ZWY-6-2" target="TN-8ZuCSGwRoG43ZWY-6-8">
          <mxGeometry relative="1" as="geometry" />
        </mxCell>
        <mxCell id="TN-8ZuCSGwRoG43ZWY-6-17" style="edgeStyle=orthogonalEdgeStyle;rounded=0;orthogonalLoop=1;jettySize=auto;html=1;entryX=0.5;entryY=0;entryDx=0;entryDy=0;curved=1;endArrow=block;endFill=1;" edge="1" parent="1" source="TN-8ZuCSGwRoG43ZWY-6-2" target="TN-8ZuCSGwRoG43ZWY-6-9">
          <mxGeometry relative="1" as="geometry">
            <Array as="points">
              <mxPoint x="235" y="120" />
              <mxPoint x="355" y="120" />
            </Array>
          </mxGeometry>
        </mxCell>
        <mxCell id="TN-8ZuCSGwRoG43ZWY-6-18" style="edgeStyle=orthogonalEdgeStyle;rounded=0;orthogonalLoop=1;jettySize=auto;html=1;entryX=0.5;entryY=0;entryDx=0;entryDy=0;curved=1;endArrow=block;endFill=1;" edge="1" parent="1" source="TN-8ZuCSGwRoG43ZWY-6-2" target="TN-8ZuCSGwRoG43ZWY-6-10">
          <mxGeometry relative="1" as="geometry">
            <Array as="points">
              <mxPoint x="235" y="120" />
              <mxPoint x="475" y="120" />
            </Array>
          </mxGeometry>
        </mxCell>
        <mxCell id="TN-8ZuCSGwRoG43ZWY-6-2" value="프론트엔드 서버" style="rounded=0;whiteSpace=wrap;html=1;" vertex="1" parent="1">
          <mxGeometry x="180" y="50" width="110" height="40" as="geometry" />
        </mxCell>
        <mxCell id="TN-8ZuCSGwRoG43ZWY-6-19" style="edgeStyle=orthogonalEdgeStyle;rounded=0;orthogonalLoop=1;jettySize=auto;html=1;entryX=0.5;entryY=0;entryDx=0;entryDy=0;curved=1;endArrow=block;endFill=1;" edge="1" parent="1" source="TN-8ZuCSGwRoG43ZWY-6-4" target="TN-8ZuCSGwRoG43ZWY-6-7">
          <mxGeometry relative="1" as="geometry">
            <Array as="points">
              <mxPoint x="355" y="110" />
              <mxPoint x="115" y="110" />
            </Array>
          </mxGeometry>
        </mxCell>
        <mxCell id="TN-8ZuCSGwRoG43ZWY-6-20" style="edgeStyle=orthogonalEdgeStyle;rounded=0;orthogonalLoop=1;jettySize=auto;html=1;entryX=0.5;entryY=0;entryDx=0;entryDy=0;endArrow=block;endFill=1;curved=1;" edge="1" parent="1" source="TN-8ZuCSGwRoG43ZWY-6-4" target="TN-8ZuCSGwRoG43ZWY-6-8">
          <mxGeometry relative="1" as="geometry">
            <Array as="points">
              <mxPoint x="355" y="110" />
              <mxPoint x="235" y="110" />
            </Array>
          </mxGeometry>
        </mxCell>
        <mxCell id="TN-8ZuCSGwRoG43ZWY-6-21" style="edgeStyle=orthogonalEdgeStyle;rounded=0;orthogonalLoop=1;jettySize=auto;html=1;entryX=0.5;entryY=0;entryDx=0;entryDy=0;endArrow=block;endFill=1;" edge="1" parent="1" source="TN-8ZuCSGwRoG43ZWY-6-4" target="TN-8ZuCSGwRoG43ZWY-6-9">
          <mxGeometry relative="1" as="geometry" />
        </mxCell>
        <mxCell id="TN-8ZuCSGwRoG43ZWY-6-22" style="edgeStyle=orthogonalEdgeStyle;rounded=0;orthogonalLoop=1;jettySize=auto;html=1;entryX=0.5;entryY=0;entryDx=0;entryDy=0;curved=1;" edge="1" parent="1" source="TN-8ZuCSGwRoG43ZWY-6-4" target="TN-8ZuCSGwRoG43ZWY-6-10">
          <mxGeometry relative="1" as="geometry">
            <Array as="points">
              <mxPoint x="355" y="110" />
              <mxPoint x="475" y="110" />
            </Array>
          </mxGeometry>
        </mxCell>
        <mxCell id="TN-8ZuCSGwRoG43ZWY-6-4" value="DB 서버" style="rounded=0;whiteSpace=wrap;html=1;" vertex="1" parent="1">
          <mxGeometry x="300" y="50" width="110" height="40" as="geometry" />
        </mxCell>
        <mxCell id="TN-8ZuCSGwRoG43ZWY-6-23" style="edgeStyle=orthogonalEdgeStyle;rounded=0;orthogonalLoop=1;jettySize=auto;html=1;entryX=0.5;entryY=0;entryDx=0;entryDy=0;endArrow=block;endFill=1;" edge="1" parent="1" source="TN-8ZuCSGwRoG43ZWY-6-5" target="TN-8ZuCSGwRoG43ZWY-6-10">
          <mxGeometry relative="1" as="geometry" />
        </mxCell>
        <mxCell id="TN-8ZuCSGwRoG43ZWY-6-24" style="edgeStyle=orthogonalEdgeStyle;rounded=0;orthogonalLoop=1;jettySize=auto;html=1;entryX=0.5;entryY=0;entryDx=0;entryDy=0;curved=1;endArrow=block;endFill=1;" edge="1" parent="1" source="TN-8ZuCSGwRoG43ZWY-6-5" target="TN-8ZuCSGwRoG43ZWY-6-9">
          <mxGeometry relative="1" as="geometry">
            <Array as="points">
              <mxPoint x="475" y="120" />
              <mxPoint x="355" y="120" />
            </Array>
          </mxGeometry>
        </mxCell>
        <mxCell id="TN-8ZuCSGwRoG43ZWY-6-25" style="edgeStyle=orthogonalEdgeStyle;rounded=0;orthogonalLoop=1;jettySize=auto;html=1;entryX=0.5;entryY=0;entryDx=0;entryDy=0;curved=1;endArrow=block;endFill=1;" edge="1" parent="1" source="TN-8ZuCSGwRoG43ZWY-6-5" target="TN-8ZuCSGwRoG43ZWY-6-8">
          <mxGeometry relative="1" as="geometry">
            <Array as="points">
              <mxPoint x="475" y="110" />
              <mxPoint x="235" y="110" />
            </Array>
          </mxGeometry>
        </mxCell>
        <mxCell id="TN-8ZuCSGwRoG43ZWY-6-26" style="edgeStyle=orthogonalEdgeStyle;rounded=0;orthogonalLoop=1;jettySize=auto;html=1;entryX=0.5;entryY=0;entryDx=0;entryDy=0;curved=1;endArrow=block;endFill=1;" edge="1" parent="1" source="TN-8ZuCSGwRoG43ZWY-6-5" target="TN-8ZuCSGwRoG43ZWY-6-7">
          <mxGeometry relative="1" as="geometry">
            <Array as="points">
              <mxPoint x="475" y="130" />
              <mxPoint x="115" y="130" />
            </Array>
          </mxGeometry>
        </mxCell>
        <mxCell id="TN-8ZuCSGwRoG43ZWY-6-5" value="채팅 서버" style="rounded=0;whiteSpace=wrap;html=1;" vertex="1" parent="1">
          <mxGeometry x="420" y="50" width="110" height="40" as="geometry" />
        </mxCell>
        <mxCell id="TN-8ZuCSGwRoG43ZWY-6-7" value="지표 UI" style="rounded=0;whiteSpace=wrap;html=1;" vertex="1" parent="1">
          <mxGeometry x="60" y="160" width="110" height="40" as="geometry" />
        </mxCell>
        <mxCell id="TN-8ZuCSGwRoG43ZWY-6-8" value="지표 분석" style="rounded=0;whiteSpace=wrap;html=1;" vertex="1" parent="1">
          <mxGeometry x="180" y="160" width="110" height="40" as="geometry" />
        </mxCell>
        <mxCell id="TN-8ZuCSGwRoG43ZWY-6-9" value="활동 모니터링" style="rounded=0;whiteSpace=wrap;html=1;" vertex="1" parent="1">
          <mxGeometry x="300" y="160" width="110" height="40" as="geometry" />
        </mxCell>
        <mxCell id="TN-8ZuCSGwRoG43ZWY-6-10" value="DB 모니터" style="rounded=0;whiteSpace=wrap;html=1;" vertex="1" parent="1">
          <mxGeometry x="420" y="160" width="110" height="40" as="geometry" />
        </mxCell>
      </root>
    </mxGraphModel>
  </diagram>
</mxfile>
